<?xml version="1.0"?><svg xmlns="http://www.w3.org/2000/svg"  viewBox="0 0 50 50" width="50px" height="50px">    <path d="M 32.089844 4 L 32.089844 6.0039062 C 31.779844 6.0099063 31.492656 6.0462812 31.222656 6.1132812 C 30.906656 6.1912813 30.620469 6.3167969 30.355469 6.4667969 C 29.873469 6.1897969 29.345391 6.0219062 28.775391 6.0039062 C 28.708391 6.0019063 18.335937 6.0019531 18.335938 6.0019531 C 17.711938 6.0019531 17.136188 6.1754688 16.617188 6.4804688 C 16.091188 6.1744687 15.512578 6 14.892578 6 L 4.3769531 6.0019531 C 3.6149531 6.0029531 2.8893437 6.2442187 2.2773438 6.6992188 C 1.4543438 7.3112188 1 8.2132344 1 9.2402344 L 1 21.748047 L 7 21.748047 L 7 25.751953 L 8 25.751953 L 8.0058594 29.042969 C 8.0288594 29.377969 8.1025625 29.698094 8.2265625 29.996094 L 8.2285156 30 L 7.875 30 L 4.3496094 30 C 3.5626094 30 2.8165469 30.263672 2.1855469 30.763672 C 1.4145469 31.374672 1.0119063 32.249516 1.0039062 33.228516 C 0.99990625 33.752516 1.0058594 39.798828 1.0058594 39.798828 C 1.0008594 40.863828 1.467375 41.548547 1.859375 41.935547 C 2.561375 42.627547 3.4244219 42.995047 4.3574219 42.998047 C 4.3574219 42.998047 13.906531 42.997 14.394531 43 C 15.119531 43 15.781766 42.776328 16.384766 42.361328 C 16.968766 42.766328 17.650953 42.993094 18.376953 42.996094 L 21.527344 43 C 22.209344 43 22.836109 42.812938 23.412109 42.460938 C 23.977109 42.808937 24.615734 43 25.302734 43 L 29.201172 43 L 29.208984 42.921875 C 29.263984 42.378875 29.167437 41.914563 28.898438 41.476562 C 28.809438 41.320563 28.747266 41.161953 28.697266 41.001953 L 25.308594 41.001953 C 24.846594 41.003953 24.453953 40.835859 24.126953 40.505859 C 23.958953 40.336859 23.875 40.129766 23.875 39.884766 C 23.876 37.630766 23.876 35.376047 23.875 33.123047 C 23.875 32.905047 23.941172 32.713781 24.076172 32.550781 C 24.359172 32.209781 24.719156 32.005953 25.160156 32.001953 L 27.837891 32.005859 L 27.837891 31 L 45.005859 31 C 45.646859 30.395 46.008 29.593594 46 28.683594 L 46 19.501953 L 42.615234 19.5 L 42.615234 18.628906 L 38.75 18.626953 L 38.75 4 L 32.089844 4 z M 34.089844 6 L 36.75 6 L 36.75 17 L 32.142578 17 C 31.757578 17.001 31.423047 16.871766 31.123047 16.634766 C 30.873047 16.436766 30.747953 16.179656 30.751953 15.847656 L 30.751953 9.2871094 C 30.751953 8.6401094 31.081172 8.2076875 31.701172 8.0546875 C 31.843172 8.0196875 31.993625 8.0029531 32.140625 8.0019531 L 34.089844 8 L 34.089844 6 z M 10 8 L 14.892578 8 C 15.345578 8 15.713531 8.192625 16.019531 8.515625 C 16.181531 8.687625 16.247047 8.8998594 16.248047 9.1308594 C 16.251047 10.050859 16.250953 10.970625 16.251953 11.890625 C 16.251953 12.072625 16.174344 12.2105 16.027344 12.3125 C 15.995344 12.3355 15.963391 12.357875 15.900391 12.421875 C 15.924391 12.427875 15.95075 12.425453 15.96875 12.439453 C 16.12575 12.554453 16.208422 12.71525 16.232422 12.90625 C 16.243422 12.99725 16.251953 13.089641 16.251953 13.181641 C 16.252953 14.156641 16.251953 16.853172 16.251953 18.451172 L 19.730469 18.451172 C 19.731469 19.004172 19.730469 20.655578 19.730469 21.017578 C 20.436469 21.017578 21.225203 21.016531 21.658203 21.019531 C 22.101203 21.022531 22.473484 21.194484 22.771484 21.521484 C 22.924484 21.689484 22.998906 21.891188 23.003906 22.117188 C 23.000906 22.157187 23 30 23 30 L 20.408203 30 L 20.408203 23.345703 L 19.726562 23.345703 L 19.728516 30.001953 L 17.009766 30.001953 L 17.009766 20.75 L 14.816406 20.75 C 14.390406 20.75 14.034375 20.585969 13.734375 20.292969 C 13.544375 20.108969 13.456031 19.885234 13.457031 19.615234 C 13.458031 19.413234 13.457031 19.155 13.457031 18.875 C 13.458031 16.983 13.457031 13.687188 13.457031 13.617188 L 12.78125 13.617188 L 12.78125 17.994141 L 10 17.994141 L 10 8 z M 21.775391 8 C 22.167391 7.999 22.499109 8.1423438 22.787109 8.4023438 C 22.999109 8.5933438 23.118047 8.8388125 23.123047 9.1328125 L 23.123047 16.998047 C 21.661285 16.998045 19.755182 16.996002 18.427734 17 C 18.032734 17.002 17.688766 16.876906 17.384766 16.628906 C 17.134766 16.424906 16.998 16.162266 17 15.822266 C 17.007 14.728266 17.005953 13.632109 17.001953 12.537109 C 17.000953 12.278109 17.085766 12.065719 17.259766 11.886719 C 17.586766 11.548719 17.970266 11.356234 18.447266 11.365234 L 20.378906 11.367188 L 20.378906 10.265625 L 19.736328 10.265625 L 19.736328 10.771484 L 17.003906 10.771484 L 17.003906 9.1113281 C 17.003906 8.8683281 17.094859 8.6602813 17.255859 8.4882812 C 17.548859 8.1752812 17.903984 8.0019531 18.333984 8.0019531 C 19.480984 8.0029531 20.628391 8.004 21.775391 8 z M 4.3789062 8.0019531 C 5.8249062 8.0009531 9.2460938 8.0019531 9.2460938 8.0019531 C 9.2460938 11.858953 9.25 16.507547 9.25 18.560547 C 9.25 18.926547 9.0964063 19.19525 8.8164062 19.40625 C 8.5054063 19.64025 8.156625 19.751 7.765625 19.75 C 6.374625 19.746 4.4886719 19.746094 3.0136719 19.746094 L 3.0136719 17.523438 L 6.4589844 17.523438 L 6.4589844 16.964844 L 4.5195312 16.964844 C 4.1515312 16.964844 3.8129063 16.872969 3.5039062 16.667969 C 3.1689063 16.446969 3 16.152281 3 15.738281 L 3 9.2402344 C 3 8.8382344 3.1557031 8.5386875 3.4707031 8.3046875 C 3.7407031 8.1036875 4.0449063 8.0029531 4.3789062 8.0019531 z M 28.712891 8.0019531 C 29.148891 8.0159531 29.502969 8.2141094 29.792969 8.5371094 C 29.934969 8.6961094 29.992 8.895375 30 9.109375 L 30 9.2304688 L 30 17 L 27.267578 17 L 27.265625 10.269531 L 26.603516 10.269531 L 26.597656 17 L 23.875 17 L 23.875 8.015625 L 26.597656 8.015625 L 26.597656 8.5234375 C 26.631656 8.5184375 26.649156 8.5226719 26.660156 8.5136719 C 27.133156 8.1716719 27.675281 8.0556719 28.238281 8.0136719 C 28.395281 8.0026719 28.554891 7.9979531 28.712891 8.0019531 z M 33.414062 10.220703 L 33.414062 14.828125 L 34.044922 14.828125 L 34.044922 10.220703 L 33.414062 10.220703 z M 12.792969 10.257812 L 12.792969 11.330078 L 13.427734 11.330078 L 13.427734 10.257812 L 12.792969 10.257812 z M 5.8027344 10.261719 L 5.8027344 14.734375 L 6.4472656 14.734375 L 6.4472656 10.261719 L 5.8027344 10.261719 z M 19.732422 13.628906 L 19.732422 14.751953 L 20.359375 14.751953 L 20.359375 13.628906 L 19.732422 13.628906 z M 9.9960938 20 L 12.615234 20 L 12.615234 21.498047 C 13.743234 21.498047 14.88 21.501953 16 21.501953 L 16 23.751953 L 12.652344 23.751953 L 12.652344 27.699219 L 13.292969 27.699219 L 13.292969 26.017578 L 13.292969 24.326172 L 16 24.326172 L 16 28.703125 C 16.004 29.119125 15.846297 29.426109 15.529297 29.662109 C 15.230297 29.884109 14.90325 30.005906 14.53125 30.003906 L 11.386719 29.998047 C 10.927719 29.996047 10.541516 29.81675 10.228516 29.46875 C 10.086516 29.31075 10.016953 29.123156 10.001953 28.910156 L 10.001953 23.753906 L 9 23.753906 L 9 21.498047 L 9.9960938 21.498047 L 9.9960938 20 z M 37.996094 20.626953 L 40.615234 20.628906 L 40.615234 21.5 C 41.743234 21.498 42.879047 21.501953 43.998047 21.501953 L 43.998047 23.751953 L 40.652344 23.751953 L 40.652344 27.699219 L 41.292969 27.699219 L 41.292969 26.017578 L 41.292969 24.326172 L 43.998047 24.326172 L 43.998047 28.703125 C 44.002047 29.119125 43.844344 29.426109 43.527344 29.662109 C 43.231344 29.882109 42.909016 30.003906 42.541016 30.003906 L 42.529297 30.003906 L 39.386719 30.003906 C 38.927719 30.001906 38.541516 29.81675 38.228516 29.46875 C 38.086516 29.31075 38.016953 29.123156 38.001953 28.910156 L 38.001953 23.753906 L 37.251953 23.753906 L 37.251953 21.498047 L 37.996094 21.498047 L 37.996094 20.626953 z M 25.304688 21 C 26.393687 21.001 27.481312 21.002 28.570312 21 C 28.986313 20.999 29.352109 21.123156 29.662109 21.410156 C 29.887109 21.617156 29.999047 21.870547 29.998047 22.185547 L 29.996094 26.632812 L 26.615234 26.632812 L 26.615234 27.748047 L 27.261719 27.748047 L 27.261719 27.197266 L 29.998047 27.197266 C 29.998047 27.724266 29.996047 28.446953 29.998047 28.876953 C 29.999047 29.152953 29.895266 29.380594 29.697266 29.558594 C 29.384266 29.841594 29.020703 30.001 28.595703 30 C 27.500703 29.998 26.4065 29.997 25.3125 30 C 24.9085 30.002 24.552234 29.869328 24.240234 29.611328 C 23.998234 29.412328 23.875 29.157938 23.875 28.835938 L 23.875 22.171875 C 23.875 21.872875 23.986219 21.624828 24.199219 21.423828 C 24.511219 21.128828 24.883688 20.999 25.304688 21 z M 32.212891 21 C 33.223891 21.005 36.133 21.001 36.75 21 L 36.75 23.25 L 33.443359 23.25 L 33.443359 23.802734 L 36.75 23.802734 L 36.75 26 L 33.443359 26 L 33.443359 30 L 30.75 30 L 30.75 22.830078 C 30.75 22.613078 30.751 22.395734 30.75 22.177734 C 30.748 21.871734 30.861172 21.621969 31.076172 21.417969 C 31.399172 21.111969 31.782891 20.999 32.212891 21 z M 26.615234 23.273438 L 26.615234 24.353516 L 27.259766 24.353516 L 27.259766 23.273438 L 26.615234 23.273438 z M 34.375 27 L 36.875 27 L 36.875 28.75 C 36.875 29.25 36.958031 29.568781 37.207031 29.925781 C 37.222031 29.947781 37.25 29.996094 37.25 29.996094 L 34.375 30 L 34.375 27 z M 16.996094 31.623047 L 19.617188 31.626953 L 19.617188 32.498047 C 20.745188 32.498047 21.881953 32.501953 23.001953 32.501953 L 23.001953 34.75 L 23 34.75 L 19.652344 34.75 L 19.652344 38.697266 L 20.292969 38.697266 L 20.292969 37.015625 L 20.292969 35.324219 L 23 35.324219 L 23 39.701172 C 23.004 40.117172 22.846297 40.424156 22.529297 40.660156 C 22.230297 40.882156 21.90325 41.003953 21.53125 41.001953 L 18.386719 40.996094 C 17.927719 40.994094 17.541516 40.814797 17.228516 40.466797 C 17.086516 40.308797 17.016953 40.121203 17.001953 39.908203 L 17.001953 34.751953 L 16.251953 34.751953 L 16.251953 32.496094 L 16.996094 32.496094 L 16.996094 31.623047 z M 4.3457031 32 C 5.4917031 32.002 6.63525 32.002 7.78125 32 C 8.20325 31.999 8.5555625 32.164797 8.8515625 32.466797 C 9.0355625 32.654797 9.125 32.885391 9.125 33.150391 L 9.125 40.998047 C 7.638 40.998047 5.7902344 41.001047 4.3652344 40.998047 C 3.9342344 40.996047 3.5706719 40.815672 3.2636719 40.513672 C 3.0696719 40.322672 3.0029063 40.075641 3.0039062 39.806641 C 3.0059062 39.310641 3.019 37.213156 3 36.660156 C 2.986 36.235156 3.1614688 35.930406 3.4804688 35.691406 C 3.7644687 35.477406 4.0765469 35.361187 4.4355469 35.367188 L 6.390625 35.367188 L 6.390625 34.267578 L 5.7363281 34.267578 L 5.7363281 34.794922 L 3.0058594 34.794922 C 3.0058594 34.272922 3.0079062 33.577937 3.0039062 33.210938 C 2.9999062 32.840938 3.1467344 32.553078 3.4277344 32.330078 C 3.6987344 32.116078 3.9997031 31.999 4.3457031 32 z M 13.123047 32 L 15.75 32 L 15.75 39.853516 C 15.752 40.167516 15.644969 40.413516 15.417969 40.603516 C 15.121969 40.851516 14.79325 41.002 14.40625 41 C 13.34125 40.995 12.276891 40.996047 11.212891 40.998047 C 10.777891 40.998047 10.413281 40.828094 10.113281 40.496094 C 9.9562812 40.322094 9.8769531 40.117047 9.8769531 39.873047 C 9.8779531 37.542047 9.8769531 34.473953 9.8769531 32.001953 C 10.763953 32.004953 11.856141 32.011719 12.494141 32.011719 L 12.494141 38.753906 L 13.121094 38.753906 L 13.123047 32 z M 41.882812 32 C 41.881813 32 41.882813 33.050125 41.882812 33.578125 C 41.936813 33.581125 41.980438 33.582938 42.023438 33.585938 C 42.274437 33.606938 42.524438 33.616344 42.773438 33.652344 C 43.103437 33.698344 43.4145 33.805906 43.6875 34.003906 C 43.9075 34.162906 44.037359 34.375484 44.068359 34.646484 C 44.110359 35.009484 44.027438 35.353453 43.898438 35.689453 C 43.888438 35.714453 43.877187 35.741578 43.867188 35.767578 C 42.968205 35.558709 42.005894 35.413209 40.943359 35.339844 C 40.567359 35.313844 40.205641 35.310594 39.806641 35.308594 L 39.683594 35.308594 L 39.599609 35.308594 C 39.194609 35.310594 38.829125 35.313844 38.453125 35.339844 C 36.773125 35.455844 35.322484 35.734313 34.021484 36.195312 C 34.672484 35.965313 35.360703 35.778719 36.095703 35.636719 C 36.830703 35.494719 37.611172 35.395891 38.451172 35.337891 C 38.465172 35.336891 38.478188 35.336938 38.492188 35.335938 C 38.489187 35.322938 38.484422 35.309875 38.482422 35.296875 C 38.450422 35.122875 38.405531 34.947484 38.394531 34.771484 C 38.369531 34.340484 38.526641 33.996828 38.931641 33.798828 C 39.045641 33.742828 39.171922 33.702875 39.294922 33.671875 C 39.416922 33.641875 39.538109 33.624234 39.662109 33.615234 C 39.707109 33.611234 39.753828 33.611375 39.798828 33.609375 C 39.854828 33.607375 39.908844 33.601562 39.964844 33.601562 C 40.002844 33.601562 40.041125 33.602516 40.078125 33.603516 L 40.273438 33.603516 L 40.273438 32.003906 L 28.837891 32.003906 L 28.837891 33.609375 L 29.228516 33.609375 L 29.419922 33.609375 C 29.741922 33.610375 30.030109 33.679547 30.287109 33.810547 C 30.544109 33.941547 30.769797 34.134812 30.966797 34.382812 C 31.146797 34.610813 31.329469 34.839938 31.480469 35.085938 C 31.808469 35.623937 32.115641 36.17275 32.431641 36.71875 C 32.457641 36.76375 32.484719 36.811375 32.511719 36.859375 C 32.024918 37.121282 31.582168 37.4132 31.177734 37.742188 C 30.690734 38.139187 30.304047 38.555625 29.998047 39.015625 C 29.645047 39.539625 29.398578 40.332516 29.767578 40.978516 C 30.137578 41.578516 30.282078 42.262484 30.205078 43.021484 L 30.195312 43.119141 C 30.165312 43.414141 30.140625 43.667047 30.140625 44.123047 C 30.140625 44.453047 30.221375 44.780094 30.359375 44.996094 C 30.622375 45.408094 31.139969 45.439453 31.292969 45.439453 C 32.215969 45.439453 32.830094 44.797563 32.996094 44.601562 C 33.331094 44.205562 33.494516 43.768781 33.478516 43.300781 C 33.546516 43.325781 33.618219 43.361156 33.699219 43.410156 C 33.715219 43.420156 33.757453 43.450234 33.814453 43.490234 C 34.604453 44.051234 35.176891 44.400391 35.587891 44.400391 C 35.891891 44.400391 36.134906 44.285937 36.253906 44.085938 L 36.275391 44.046875 C 37.148038 45.699507 38.022231 47.355325 38.890625 49 L 40.511719 49 C 41.320429 47.248237 42.1288 45.495112 42.9375 43.742188 L 43.142578 44.085938 C 43.261578 44.284937 43.504594 44.400391 43.808594 44.400391 C 44.219594 44.400391 44.792031 44.051234 45.582031 43.490234 C 45.639031 43.449234 45.681125 43.42025 45.703125 43.40625 C 45.782125 43.35925 45.852922 43.324781 45.919922 43.300781 C 45.904922 43.771781 46.066391 44.206562 46.400391 44.601562 C 46.567391 44.798563 47.181516 45.439453 48.103516 45.439453 C 48.255516 45.439453 48.774109 45.407141 49.037109 44.994141 C 49.175109 44.778141 49.257813 44.453047 49.257812 44.123047 C 49.257812 43.667047 49.231172 43.412188 49.201172 43.117188 L 49.191406 43.019531 C 49.114406 42.259531 49.259094 41.578188 49.621094 40.992188 C 49.999094 40.332188 49.751484 39.538719 49.396484 39.011719 C 49.090484 38.555719 48.70575 38.139187 48.21875 37.742188 C 47.642045 37.27293 46.987022 36.878232 46.238281 36.542969 L 46.244141 36.53125 C 46.424141 36.19725 46.590109 35.85425 46.787109 35.53125 C 46.978109 35.21725 47.185109 34.910094 47.412109 34.621094 C 47.792109 34.141094 48.273719 33.798062 48.886719 33.664062 C 49.188719 33.599063 49.493734 33.577937 49.802734 33.585938 C 49.867734 33.587938 50 33.585938 50 33.585938 L 50 32 L 41.882812 32 z M 26.619141 34.263672 L 26.619141 38.744141 L 27.251953 38.744141 L 27.251953 34.263672 L 26.619141 34.263672 z M 30.001953 34.8125 L 30.001953 37.480469 C 30.175953 37.306469 30.346828 37.132797 30.548828 36.966797 C 30.743828 36.807797 30.948203 36.658672 31.158203 36.513672 C 30.984203 36.209672 30.810906 35.904469 30.628906 35.605469 C 30.520906 35.428469 30.375656 35.245781 30.222656 35.050781 L 30.185547 35.003906 C 30.125547 34.927906 30.064953 34.8655 30.001953 34.8125 z M 39.601562 35.806641 L 39.683594 35.806641 L 39.806641 35.806641 C 40.174641 35.807641 40.542156 35.810938 40.910156 35.835938 C 42.377156 35.936937 43.817031 36.172063 45.207031 36.664062 C 46.183031 37.010062 47.097297 37.472906 47.904297 38.128906 C 48.317297 38.465906 48.686422 38.846016 48.982422 39.291016 C 49.027422 39.362016 49.539359 40.126469 49.193359 40.730469 C 48.777359 41.404469 48.602406 42.187313 48.691406 43.070312 C 48.724406 43.399313 48.755859 43.643047 48.755859 44.123047 C 48.755859 44.342047 48.702281 44.587562 48.613281 44.726562 C 48.489281 44.920563 48.183563 44.939453 48.101562 44.939453 C 47.525562 44.939453 47.045297 44.592297 46.779297 44.279297 C 46.365297 43.790297 46.409875 43.358422 46.421875 43.232422 C 46.428875 43.157422 46.5045 43.050781 46.6875 43.050781 C 46.8735 43.050781 46.927953 43.121219 47.001953 43.199219 C 47.058953 43.259219 47.101109 43.302422 47.162109 43.357422 C 47.226109 43.415422 47.333828 43.455078 47.423828 43.455078 C 47.437828 43.455078 47.451844 43.455125 47.464844 43.453125 C 47.520844 43.444125 47.561312 43.414422 47.570312 43.357422 C 47.572313 43.341422 47.567594 43.291437 47.558594 43.273438 C 47.487594 43.122437 47.376375 43.040031 47.234375 42.957031 C 47.012375 42.829031 46.671266 42.740234 46.322266 42.740234 C 46.049266 42.740234 45.790406 42.773469 45.441406 42.980469 C 45.323406 43.050469 44.215594 43.900391 43.808594 43.900391 C 43.667594 43.900391 43.588266 43.856078 43.572266 43.830078 C 43.663266 43.830078 43.982297 43.697594 44.279297 43.308594 C 44.549297 42.955594 44.744313 42.548656 44.945312 42.347656 C 45.212313 42.081656 45.479297 41.837891 46.154297 41.837891 C 46.363297 41.837891 46.8035 41.946531 47.0625 42.144531 C 47.3665 42.376531 47.530953 42.582156 47.626953 42.785156 C 47.705953 42.952156 47.768922 43.117016 47.794922 43.291016 C 47.843922 43.613016 47.839125 43.885484 47.703125 44.021484 C 47.690125 44.033484 47.593797 44.088844 47.591797 44.089844 C 47.599797 44.107844 47.658641 44.113281 47.681641 44.113281 L 47.685547 44.113281 C 47.867547 44.097281 47.994141 43.92725 47.994141 43.65625 C 47.994141 43.37725 47.890875 43.162641 47.796875 43.056641 C 47.890875 43.037641 47.981891 43.019047 48.087891 42.998047 C 48.167891 43.101047 48.687703 43.646031 48.595703 44.332031 C 48.573703 44.496031 48.488344 44.592453 48.402344 44.689453 C 48.548344 44.641453 48.61625 44.526578 48.65625 44.392578 C 48.70725 44.218578 48.707687 44.039328 48.679688 43.861328 C 48.621688 43.478328 48.467234 43.137219 48.240234 42.824219 C 47.914234 42.375219 47.500109 42.021703 47.037109 41.720703 C 46.328109 41.259703 45.552188 40.94875 44.742188 40.71875 C 43.901187 40.47975 43.043781 40.334281 42.175781 40.238281 C 41.350781 40.147281 40.525266 40.122094 39.697266 40.121094 C 38.870266 40.123094 38.04275 40.147281 37.21875 40.238281 C 36.34975 40.333281 35.492344 40.47975 34.652344 40.71875 C 33.842344 40.94875 33.066422 41.259703 32.357422 41.720703 C 31.894422 42.021703 31.480297 42.375219 31.154297 42.824219 C 30.927297 43.137219 30.774797 43.478328 30.716797 43.861328 C 30.688797 44.039328 30.687281 44.218578 30.738281 44.392578 C 30.778281 44.525578 30.845187 44.640453 30.992188 44.689453 C 30.906188 44.591453 30.822781 44.495031 30.800781 44.332031 C 30.708781 43.647031 31.228594 43.102047 31.308594 42.998047 C 31.414594 43.019047 31.503656 43.037641 31.597656 43.056641 C 31.503656 43.163641 31.400391 43.37725 31.400391 43.65625 C 31.400391 43.92625 31.526984 44.097281 31.708984 44.113281 L 31.714844 44.113281 C 31.736844 44.113281 31.796688 44.107844 31.804688 44.089844 C 31.802688 44.088844 31.703406 44.034484 31.691406 44.021484 C 31.555406 43.886484 31.552562 43.613016 31.601562 43.291016 C 31.627562 43.117016 31.688578 42.952156 31.767578 42.785156 C 31.863578 42.582156 32.028031 42.376531 32.332031 42.144531 C 32.591031 41.947531 33.031234 41.837891 33.240234 41.837891 C 33.915234 41.837891 34.182219 42.082656 34.449219 42.347656 C 34.650219 42.548656 34.845234 42.955594 35.115234 43.308594 C 35.412234 43.697594 35.731266 43.830078 35.822266 43.830078 C 35.806266 43.857078 35.726938 43.900391 35.585938 43.900391 C 35.178938 43.900391 34.071125 43.050469 33.953125 42.980469 C 33.605125 42.773469 33.345266 42.740234 33.072266 42.740234 C 32.722266 42.740234 32.382156 42.829031 32.160156 42.957031 C 32.017156 43.040031 31.907891 43.122437 31.837891 43.273438 C 31.829891 43.291438 31.822219 43.340422 31.824219 43.357422 C 31.832219 43.414422 31.875641 43.444125 31.931641 43.453125 C 31.944641 43.455125 31.956703 43.455078 31.970703 43.455078 C 32.059703 43.455078 32.168422 43.415422 32.232422 43.357422 C 32.293422 43.302422 32.335578 43.259219 32.392578 43.199219 C 32.466578 43.121219 32.520031 43.050781 32.707031 43.050781 C 32.891031 43.050781 32.966656 43.157422 32.972656 43.232422 C 32.984656 43.359422 33.029234 43.790297 32.615234 44.279297 C 32.350234 44.592297 31.868969 44.939453 31.292969 44.939453 C 31.210969 44.939453 30.90525 44.920563 30.78125 44.726562 C 30.69225 44.587562 30.640625 44.342047 30.640625 44.123047 C 30.640625 43.644047 30.670125 43.400313 30.703125 43.070312 C 30.792125 42.187312 30.617172 41.404469 30.201172 40.730469 C 29.855172 40.126469 30.368063 39.362969 30.414062 39.292969 C 30.710062 38.847969 31.079187 38.467859 31.492188 38.130859 C 32.298187 37.474859 33.212453 37.013016 34.189453 36.666016 C 35.579453 36.174016 37.020328 35.938891 38.486328 35.837891 C 38.858328 35.811891 39.229562 35.808641 39.601562 35.806641 z M 38.638672 36.492188 C 38.100297 36.516188 37.569109 36.564219 37.037109 36.636719 C 36.945109 36.649719 36.853719 36.664688 36.761719 36.679688 L 36.726562 36.685547 L 36.726562 36.833984 C 36.754562 36.833984 36.778688 36.833937 36.804688 36.835938 C 37.110687 36.857937 37.351516 37.090281 37.353516 37.363281 C 37.357516 37.668281 37.356422 37.823906 37.357422 38.128906 L 37.359375 38.544922 C 37.361375 38.666922 37.321141 38.780766 37.244141 38.884766 C 37.120141 39.051766 36.966109 39.167562 36.787109 39.226562 C 36.770109 39.231563 36.756234 39.237188 36.740234 39.242188 L 36.740234 39.382812 C 37.598234 39.256813 38.400984 39.186969 39.208984 39.167969 C 39.207984 39.148969 39.206078 39.040438 39.205078 39.023438 C 38.809078 38.983438 38.569359 38.725031 38.568359 38.332031 C 38.568359 38.332031 38.5625 37.762703 38.5625 37.345703 C 38.5625 37.060703 38.769594 36.621094 39.183594 36.621094 C 39.427594 36.621094 39.605969 36.922109 39.667969 37.037109 L 40.703125 39.199219 L 41.498047 39.253906 C 41.526047 39.188906 42.405891 37.163891 42.462891 37.087891 C 42.607891 36.891891 42.807125 36.872297 42.953125 36.904297 C 43.329125 36.988297 43.351375 37.367078 43.359375 37.455078 C 43.364375 37.516078 43.367281 38.501937 43.363281 38.835938 C 43.361281 39.144937 43.21925 39.283203 42.90625 39.283203 L 42.744141 39.283203 L 42.744141 39.421875 C 43.534141 39.519875 44.470437 39.7055 45.898438 40.3125 L 45.898438 39.03125 C 45.848438 39.01025 45.828953 39.019641 45.751953 39.056641 C 45.696953 39.082641 44.525391 39.660156 44.525391 39.660156 L 44.525391 38.544922 L 45.142578 39.121094 L 45.142578 38.144531 L 44.525391 38.380859 L 44.525391 37.279297 C 44.525391 37.279297 45.120016 37.851062 45.791016 38.539062 C 45.833016 38.581063 45.863391 38.604141 45.900391 38.619141 L 45.900391 37.667969 C 45.900391 37.629969 45.897281 37.624328 45.863281 37.611328 C 45.767281 37.574328 45.672172 37.535094 45.576172 37.496094 C 45.434172 37.438094 45.293437 37.381078 45.148438 37.330078 C 44.946438 37.259078 44.682391 37.177859 44.525391 37.130859 C 43.299391 36.760859 41.929156 36.565141 40.285156 36.494141 C 39.721656 36.468641 39.177047 36.468187 38.638672 36.492188 z M 41.494141 36.716797 C 41.687141 36.730797 41.876578 36.830156 42.017578 37.035156 C 42.089578 37.142156 42.104547 37.269906 42.060547 37.378906 L 41.501953 38.632812 L 40.980469 37.535156 C 40.939469 37.443156 40.897422 37.351766 40.857422 37.259766 C 40.785422 37.092766 40.809406 36.993859 40.941406 36.880859 C 41.127406 36.724859 41.312141 36.702797 41.494141 36.716797 z M 36.466797 36.724609 L 36.181641 36.775391 C 35.899641 36.826391 35.618891 36.875594 35.337891 36.933594 C 34.549891 37.093594 33.848359 37.328344 33.193359 37.652344 C 33.166359 37.666344 33.107656 37.694031 33.097656 37.707031 C 33.096656 37.713031 33.103516 37.851562 33.103516 37.851562 C 33.290516 37.810563 33.442734 37.831969 33.552734 37.917969 C 33.667734 38.008969 33.726562 38.165813 33.726562 38.382812 C 33.726562 38.382812 33.727516 39.062391 33.728516 39.275391 C 33.729516 39.669391 33.545547 39.978313 33.185547 40.195312 C 33.164547 40.207313 33.132609 40.226141 33.099609 40.244141 L 33.099609 40.394531 C 34.007609 40.003531 34.925391 39.719391 35.900391 39.525391 L 35.900391 39.384766 C 35.883391 39.385766 35.86475 39.386766 35.84375 39.384766 L 35.779297 39.380859 C 35.669297 39.375859 35.553406 39.369844 35.441406 39.339844 C 35.216406 39.278844 35.113281 39.143109 35.113281 38.912109 L 35.113281 38.351562 L 35.746094 38.703125 L 35.75 37.742188 L 35.111328 38.212891 L 35.113281 37.138672 L 36.466797 37.894531 L 36.466797 36.724609 z M 5.7480469 37.632812 L 5.7480469 38.753906 L 6.390625 38.753906 L 6.390625 37.632812 L 5.7480469 37.632812 z M 40.652344 40.636719 L 40.654297 40.636719 C 41.052297 40.649719 41.416766 40.669219 41.759766 40.699219 C 41.759766 40.699219 41.759766 40.701172 41.759766 40.701172 L 41.203125 42 L 40.652344 40.636719 z"/></svg>